<svg width="22" height="37" viewBox="0 0 22 37" fill="none" xmlns="http://www.w3.org/2000/svg">
<path d="M20.2275 0.900391C20.7137 0.900391 21.0965 1.32662 21.0967 1.83301V8.5C21.0967 9.00651 20.7138 9.43359 20.2275 9.43359H17.0625C15.8953 9.48685 14.9484 10.5316 14.9482 11.8281V14.2285H20.2324C20.5047 14.2286 20.7572 14.3687 20.9199 14.5957L20.9766 14.6846C21.0794 14.8682 21.1192 15.0829 21.0908 15.2939L21.0713 15.3984L19.4668 22.0654C19.3683 22.4768 19.0236 22.7666 18.623 22.7666H14.6777V35.167C14.6776 35.6734 14.2947 36.0996 13.8086 36.0996H7.38672C6.90073 36.0994 6.51774 35.6733 6.51758 35.167V22.7666H1.76953C1.2833 22.7666 0.900391 22.3395 0.900391 21.833V15.2334C0.900391 14.7269 1.28328 14.2998 1.76953 14.2998H7.05273V10.167C7.05273 5.06576 10.8864 0.900391 15.6133 0.900391H20.2275ZM15.6104 2.7666C11.8545 2.7666 8.78809 6.08036 8.78809 10.167V15.2334C8.78805 15.7399 8.40518 16.167 7.91895 16.167H2.63574V20.9004H7.38477C7.87071 20.9006 8.25374 21.3268 8.25391 21.833V34.2334H12.9365V21.833C12.9367 21.3268 13.3197 20.9006 13.8057 20.9004H17.9492L19.1055 16.0996H14.0723C13.5861 16.0996 13.2033 15.6734 13.2031 15.167V11.833C13.2033 9.48912 14.9664 7.56645 17.1484 7.56641H19.3555V2.7666H15.6104Z" fill="black" stroke="black" stroke-width="0.2"/>
</svg>
