<svg width="34" height="34" viewBox="0 0 34 34" fill="none" xmlns="http://www.w3.org/2000/svg">
<path d="M31.0506 8.82119C31.0506 5.11861 28.0491 2.11709 24.3465 2.11709H8.82119C5.11862 2.11709 2.11709 5.11862 2.11709 8.82119V24.3465C2.11709 28.0491 5.11861 31.0506 8.82119 31.0506H24.3465C28.0491 31.0506 31.0506 28.0491 31.0506 24.3465V8.82119ZM33.1677 24.3465C33.1677 29.2183 29.2183 33.1677 24.3465 33.1677H8.82119C3.94938 33.1677 0 29.2183 0 24.3465V8.82119C0 3.26281 3.94938 9.09297e-08 8.82119 0H24.3465C29.2183 0 33.1677 3.94938 33.1677 8.82119V24.3465Z" fill="black"/>
<path d="M13.3036 10.065C14.6606 9.36088 16.2048 9.10199 17.717 9.32619C19.2596 9.55494 20.6885 10.2744 21.7913 11.3771C22.8937 12.4798 23.6121 13.9077 23.8408 15.45C24.065 16.9621 23.8073 18.5065 23.1034 19.8634C22.3994 21.2202 21.2849 22.3213 19.9195 23.0087C18.554 23.696 17.0059 23.9352 15.4965 23.6923C13.9873 23.4495 12.5928 22.7373 11.5118 21.6566C10.4308 20.5755 9.71758 19.1799 9.47469 17.6705C9.23197 16.1614 9.47122 14.6142 10.1583 13.2489C10.8457 11.8832 11.9466 10.7691 13.3036 10.065ZM17.4069 11.4198C16.335 11.2609 15.2399 11.4445 14.2781 11.9436C13.3165 12.4426 12.5365 13.2322 12.0494 14.1999C11.5623 15.1676 11.3922 16.2646 11.5642 17.3342C11.7363 18.4039 12.2426 19.3922 13.0087 20.1583C13.7749 20.9245 14.763 21.4307 15.8328 21.6028C16.9025 21.7749 17.9993 21.6048 18.9671 21.1176C19.9349 20.6305 20.7244 19.8506 21.2234 18.8889C21.7225 17.9271 21.9061 16.832 21.7472 15.7601C21.585 14.667 21.0745 13.6554 20.2931 12.874C19.5116 12.0925 18.5001 11.582 17.4069 11.4198Z" fill="black"/>
<path d="M25.5107 6.58771C26.333 6.5879 27 7.2594 27 8.08771C27 8.91602 26.333 9.58752 25.5107 9.58771H25.4893C24.6668 9.58771 24 8.91614 24 8.08771C24 7.25928 24.6668 6.58771 25.4893 6.58771H25.5107Z" fill="black"/>
</svg>
