<svg width="38" height="33" viewBox="0 0 38 33" fill="none" xmlns="http://www.w3.org/2000/svg">
<path d="M37.9746 25.4038C37.9305 25.1991 37.8326 25.0087 37.6904 24.8509C37.5482 24.6931 37.3664 24.5731 37.1624 24.5024C37.1007 24.4811 32.5789 22.8402 30.3545 16.9812L33.4101 15.8018C33.7221 15.6802 33.9713 15.444 34.1028 15.1452C34.2343 14.8464 34.2375 14.5094 34.1115 14.2083C33.9855 13.9072 33.7408 13.6668 33.4311 13.5399C33.1214 13.413 32.7722 13.4099 32.4602 13.5315L29.6388 14.6208C29.2921 13.0285 29.1233 11.4048 29.1354 9.77776C29.1354 7.18453 28.0678 4.69752 26.1676 2.86384C24.2673 1.03015 21.69 0 19.0026 0C16.3153 0 13.738 1.03015 11.8377 2.86384C9.93744 4.69752 8.86988 7.18453 8.86988 9.77776C8.87978 11.4073 8.71102 13.0332 8.36641 14.6284L5.54508 13.5315C5.3906 13.4713 5.22534 13.4411 5.05875 13.4425C4.89216 13.4439 4.7275 13.477 4.57416 13.5399C4.42082 13.6027 4.28181 13.6941 4.16506 13.8088C4.04832 13.9235 3.95613 14.0592 3.89376 14.2083C3.83138 14.3574 3.80005 14.5168 3.80154 14.6776C3.80303 14.8383 3.83732 14.9972 3.90244 15.1452C3.96757 15.2932 4.06227 15.4273 4.18112 15.54C4.29997 15.6526 4.44065 15.7416 4.59513 15.8018L7.66187 16.9858C7.03347 18.68 6.08071 20.2451 4.8532 21.5997C2.87098 23.7599 0.85235 24.5024 0.838101 24.5024C0.634119 24.5732 0.452371 24.6933 0.310248 24.8512C0.168125 25.0092 0.0703833 25.1997 0.0263768 25.4045C-0.0176298 25.6093 -0.00642862 25.8216 0.0589082 26.021C0.124245 26.2204 0.241531 26.4004 0.399543 26.5436C1.52364 27.5626 3.19713 27.7215 4.81362 27.8758C5.81264 27.9705 6.84492 28.0698 7.40855 28.3692C7.9421 28.6534 8.49307 29.3806 9.02504 30.0834C9.87999 31.2155 10.8505 32.4973 12.3878 32.8762C13.8238 33.2322 15.2931 32.7494 16.5898 32.3231C17.4685 32.0344 18.2997 31.7609 18.9979 31.7609C19.6961 31.7609 20.5273 32.0344 21.406 32.3231C22.3876 32.6455 23.4642 32.9999 24.5566 32.9999C24.9111 33.0019 25.2644 32.9604 25.6079 32.8762C27.1437 32.4973 28.1142 31.2155 28.9691 30.0834C29.5011 29.3806 30.0521 28.6534 30.5856 28.3692C31.1493 28.0637 32.1815 27.9705 33.1805 27.8758C34.797 27.723 36.4705 27.5626 37.5946 26.5436C37.754 26.401 37.8726 26.2213 37.9391 26.0217C38.0057 25.8221 38.0179 25.6093 37.9746 25.4038ZM32.9367 25.4436C31.6844 25.5627 30.3909 25.6865 29.3697 26.2273C28.3485 26.7681 27.6281 27.723 26.9299 28.6427C26.2966 29.4799 25.6396 30.3477 24.9857 30.5081C24.2796 30.6838 23.2821 30.3554 22.2277 30.0085C21.1732 29.6617 20.1204 29.3165 19.0026 29.3165C17.8849 29.3165 16.813 29.6679 15.7776 30.0085C14.7421 30.3492 13.7193 30.6838 13.0196 30.5081C12.3657 30.3477 11.7102 29.4799 11.0753 28.6427C10.3803 27.7261 9.6615 26.7727 8.63556 26.2273C7.60962 25.6819 6.32086 25.5627 5.0701 25.4436C4.8247 25.4206 4.57138 25.3962 4.31965 25.3687C5.16444 24.77 5.94374 24.0896 6.64543 23.3383C7.9706 21.922 9.45093 19.7893 10.404 16.749L10.4135 16.7291C10.446 16.6496 10.4704 16.5672 10.4864 16.4832C11.1156 14.3004 11.4241 12.0433 11.4031 9.77776C11.4031 7.83284 12.2037 5.96758 13.6289 4.59232C15.0541 3.21705 16.9871 2.44444 19.0026 2.44444C21.0182 2.44444 22.9511 3.21705 24.3763 4.59232C25.8015 5.96758 26.6022 7.83284 26.6022 9.77776C26.5811 12.0449 26.8902 14.3036 27.5205 16.4877C27.5364 16.5718 27.5608 16.6542 27.5933 16.7337L27.6028 16.7536C28.5527 19.7938 30.0362 21.9266 31.3614 23.3429C32.0631 24.0942 32.8424 24.7746 33.6872 25.3733C33.4355 25.3962 33.1837 25.4206 32.9351 25.4436H32.9367Z" fill="black"/>
</svg>
