<svg width="47" height="34" viewBox="0 0 47 34" fill="none" xmlns="http://www.w3.org/2000/svg">
<path d="M5.18542 1.50339C16.9075 -0.438549 28.8617 -0.499154 40.5984 1.32145L41.7327 1.50339L41.8402 1.52682C42.7655 1.78052 43.6096 2.27078 44.2881 2.94923C44.9662 3.62749 45.4555 4.47081 45.7091 5.39574C45.7146 5.41567 45.72 5.43616 45.7243 5.45638C47.3161 12.9683 47.3161 20.7307 45.7243 28.2426C45.72 28.2628 45.7146 28.2833 45.7091 28.3033C45.4555 29.2282 44.9662 30.0715 44.2881 30.7498C43.6096 31.4282 42.7655 31.9185 41.8402 32.1722C41.805 32.1818 41.7687 32.1896 41.7327 32.1956C29.6327 34.2005 17.2854 34.2006 5.18542 32.1956C5.14942 32.1896 5.1131 32.1818 5.07791 32.1722C4.15272 31.9184 3.30977 31.4281 2.6314 30.7498C1.95304 30.0714 1.46272 29.2285 1.20899 28.3033C1.20352 28.2833 1.19812 28.2629 1.19383 28.2426C-0.397942 20.7307 -0.397942 12.9683 1.19383 5.45638C1.19812 5.43613 1.20351 5.4157 1.20899 5.39574C1.46272 4.47055 1.95304 3.6276 2.6314 2.94923C3.30977 2.27087 4.15272 1.78055 5.07791 1.52682L5.18542 1.50339ZM41.322 3.5805C29.493 1.62819 17.4237 1.628 5.59477 3.5805C5.04081 3.74026 4.53627 4.03806 4.12825 4.44608C3.71715 4.85719 3.4174 5.36611 3.25854 5.92501C1.73654 13.128 1.73673 20.5696 3.25854 27.7726C3.41731 28.332 3.71683 28.8415 4.12825 29.2529C4.53618 29.6609 5.04095 29.9573 5.59477 30.1171C17.4239 32.0701 29.4929 32.0699 41.322 30.1171C41.8764 29.9575 42.3816 29.6612 42.7899 29.2529C43.2009 28.8419 43.4993 28.3327 43.6582 27.774C45.1805 20.5699 45.1807 13.1277 43.6582 5.92363C43.4992 5.36541 43.2006 4.85676 42.7899 4.44608C42.3815 4.03775 41.8765 3.74012 41.322 3.5805Z" fill="black"/>
<path d="M18.4695 9.22499C18.8011 9.0373 19.208 9.04147 19.5349 9.23739L30.7089 15.9415C31.0277 16.1328 31.223 16.478 31.223 16.8498C31.223 17.2216 31.0277 17.5668 30.7089 17.7581L19.5349 24.4622C19.208 24.6581 18.8011 24.6623 18.4695 24.4746C18.1376 24.2867 17.9319 23.9353 17.9319 23.5539V10.1457L17.9416 10.0037C17.9855 9.67858 18.1793 9.3893 18.4695 9.22499ZM20.049 21.6835L28.1052 16.8498L20.049 12.0147V21.6835Z" fill="black"/>
</svg>
